<svg width="179" height="42" viewBox="0 0 179 42" fill="none" xmlns="http://www.w3.org/2000/svg">
<g clip-path="url(#clip0_16988_42381)">
<path d="M0.176526 30.5871L1.41223 30.4977C2.73619 30.4083 2.95685 30.3188 2.95685 29.022V5.09786L0 3.04083V2.81724L7.59073 0V16.1432C8.42924 12.8341 10.6359 11.0006 13.8134 11.0006C17.3439 11.0006 19.6388 12.9682 19.6388 18.6921V29.022C19.6388 30.2741 19.8153 30.4083 21.1834 30.4977L22.4191 30.5871V31.6604H12.4453V30.5871L13.5044 30.4977C14.8284 30.3636 15.0049 30.3188 15.0049 29.022V19.5865C15.0049 15.1147 13.7251 13.8626 11.5185 13.8626C9.48841 13.8626 7.63486 15.2041 7.63486 19.6312V29.022C7.63486 30.2741 7.76726 30.3636 9.13536 30.4977L10.1945 30.5871V31.6604H0.176526V30.5871Z" fill="#4B383B"/>
<path d="M75.1571 29.8272C76.3099 29.8704 77.4486 29.5586 78.4229 28.9328L78.9525 29.8719C77.3637 31.124 74.6717 31.9289 72.4651 31.9289C69.111 31.9289 67.5223 30.9451 67.5223 27.5018V14.1758H63.418V13.9523L71.9796 7.33398H72.2444V11.6716H80.2765L78.6877 14.2206H72.2003V26.3839C72.2444 28.9775 73.3918 29.8272 75.1571 29.8272Z" fill="#4B383B"/>
<path d="M81.9089 30.5876L83.1447 30.4981C84.4245 30.4087 84.6893 30.3192 84.6893 29.0224V16.4119L81.7324 14.176V13.9524L89.3673 10.8669V29.0224C89.3673 30.2745 89.5879 30.4087 90.9119 30.4981L92.1476 30.5876V31.6608H81.9531V30.5876H81.9089ZM86.9841 0.0898438C87.7342 0.181178 88.4253 0.547863 88.9266 1.12055C89.428 1.69324 89.7048 2.43222 89.7048 3.19775C89.7048 3.96327 89.428 4.70226 88.9266 5.27494C88.4253 5.84763 87.7342 6.21432 86.9841 6.30566C86.18 6.27092 85.4187 5.92864 84.8536 5.34778C84.2886 4.76693 83.9617 3.99067 83.939 3.17539C83.9504 2.36065 84.2749 1.58253 84.8435 1.00636C85.4122 0.430195 86.1801 0.101402 86.9841 0.0898438V0.0898438Z" fill="#4B383B"/>
<path d="M94.2664 30.5874L95.5021 30.4979C96.826 30.4085 97.0467 30.319 97.0467 29.0222V5.09806L94.0898 3.04103V2.81744L101.725 0.0449219V29.0669C101.725 30.319 101.901 30.4532 103.269 30.5426L104.505 30.6321V31.7053H94.3105V30.5874H94.2664Z" fill="#4B383B"/>
<path d="M106.623 30.5876L107.859 30.4981C109.138 30.4087 109.403 30.3192 109.403 29.0224V16.4119L106.446 14.176V13.9524L114.081 10.8669V29.0224C114.081 30.2745 114.302 30.4087 115.626 30.4981L116.861 30.5876V31.6608H106.667V30.5876H106.623ZM111.698 0.0898438C112.448 0.181178 113.139 0.547863 113.641 1.12055C114.142 1.69324 114.419 2.43222 114.419 3.19775C114.419 3.96327 114.142 4.70226 113.641 5.27494C113.139 5.84763 112.448 6.21432 111.698 6.30566C110.894 6.27092 110.133 5.92864 109.567 5.34778C109.002 4.76693 108.676 3.99067 108.653 3.17539C108.664 2.36065 108.989 1.58253 109.557 1.00636C110.126 0.430195 110.894 0.101402 111.698 0.0898438V0.0898438Z" fill="#4B383B"/>
<path d="M128.601 29.8272C129.754 29.8704 130.893 29.5586 131.867 28.9328L132.397 29.8719C130.808 31.124 128.116 31.9289 125.909 31.9289C122.555 31.9289 120.967 30.9451 120.967 27.5018V14.1758H116.862V13.9523L125.424 7.33398H125.689V11.6716H133.721L132.132 14.2206H125.645V26.3839C125.645 28.9775 126.836 29.8272 128.601 29.8272Z" fill="#4B383B"/>
<path d="M137.648 39.5762C137.648 37.8321 139.149 36.4012 143.076 35.7751L144.886 31.7505L137.736 14.7576C137.207 13.5055 136.898 13.0136 135.618 12.8795L134.735 12.79V11.7168H145.062V12.79L144.003 12.8795C142.723 12.9689 142.326 13.4608 142.767 14.534L147.49 25.9819L152.212 15.4284C153.006 13.6397 152.388 12.9689 151.108 12.8795L149.829 12.79V11.7168H157.419V12.79L156.404 12.8795C155.124 13.0136 154.639 13.4608 154.021 14.8471L143.738 37.7874C142.503 40.5152 141.576 41.7673 139.943 41.7673C138.531 41.7226 137.648 40.7388 137.648 39.5762Z" fill="#4B383B"/>
<path d="M179 7.60215C177.985 1.65465 172.336 -1.38618 166.952 0.805005C161.612 -1.38618 155.919 1.65465 154.904 7.60215H157.464C156.361 2.86203 161.921 -0.939 165.937 1.25219C164.778 1.89356 163.832 2.86886 163.219 4.05482C162.606 5.24077 162.354 6.58414 162.495 7.91517C162.76 10.8666 164.657 13.1919 166.908 14.8465C169.159 13.1919 171.057 10.8666 171.321 7.91517C171.719 5.23209 170.174 2.54901 167.879 1.25219C171.851 -0.939 177.456 2.86203 176.353 7.60215H179ZM169.689 7.82574C169.777 9.9722 168.674 12.2975 166.997 13.9074C165.275 12.2975 164.172 9.9722 164.304 7.82574C164.445 5.60001 165.406 3.50906 166.997 1.96767V1.96767C168.585 3.39865 169.512 5.72399 169.689 7.82574Z" fill="#4B383B"/>
<path d="M58.7403 10.8672C56.7102 10.8672 54.5919 12.3876 53.4444 16.0098V10.8672L45.8096 13.9527V14.1763L48.7664 16.4122V29.0674C48.7664 30.3195 48.5899 30.4537 47.2218 30.5431L45.9861 30.6326V31.7058H57.1515V30.5878L55.0773 30.4537C53.7534 30.3643 53.4444 30.3195 53.4444 29.0674V18.9612C53.4444 16.8594 54.636 14.9812 55.1215 14.6235L59.5788 16.8147C60.6821 16.5464 61.6089 15.2943 61.6089 13.6844C61.6089 12.0746 60.5497 10.8672 58.7403 10.8672Z" fill="#4B383B"/>
<path d="M42.6318 23.8345C41.4844 27.8144 38.4393 29.0218 36.012 29.0218C31.687 29.0218 28.8185 25.0419 28.8185 19.5416V18.9602H43.3821C42.1905 13.4599 38.351 11.0898 34.0261 11.0898C31.7713 11.109 29.5882 11.8954 27.8275 13.3227C26.0667 14.75 24.8304 16.7354 24.317 18.9602C24.098 19.8673 23.9942 20.799 24.0081 21.7327C24.0081 27.9933 27.98 32.1968 34.1585 32.1968C39.013 32.1968 42.5877 29.5137 43.6027 23.8792H42.6318V23.8345ZM33.8937 12.1184C36.5416 12.1184 37.8214 14.1307 37.9538 17.4845H29.0391C29.5246 13.9965 31.4223 12.1184 33.8937 12.1184V12.1184Z" fill="#4B383B"/>
</g>
<defs>
<clipPath id="clip0_16988_42381">
<rect width="179" height="41.7667" fill="white"/>
</clipPath>
</defs>
</svg>
